<svg width="20" height="20" viewBox="0 0 20 20" fill="none" xmlns="http://www.w3.org/2000/svg">
<path d="M19.3146 9.67499C19.3133 7.11282 18.2959 4.65573 16.4856 2.84259C14.6753 1.02946 12.2198 0.00828577 9.6576 0.00299072C8.87387 0.00414612 8.09307 0.0984806 7.33161 0.283997C5.0417 0.856459 3.03986 2.24596 1.70277 4.1911C0.365667 6.13624 -0.214562 8.50293 0.0712349 10.8459C0.357032 13.189 1.48918 15.3468 3.25465 16.9135C5.02011 18.4802 7.29722 19.3477 9.6576 19.353C10.2026 19.353 16.2806 19.036 17.7576 18.953C18.0345 18.9608 18.3079 18.8902 18.5464 18.7493C18.7849 18.6084 18.9786 18.4029 19.1054 18.1566C19.2321 17.9102 19.2865 17.6331 19.2625 17.3572C19.2385 17.0812 19.137 16.8177 18.9696 16.597L17.8386 14.817L17.9386 14.655C18.8422 13.1512 19.3179 11.4293 19.3146 9.67499ZM15.9276 15.304L17.0756 17.111L16.5516 17.138C15.4786 17.194 10.0996 17.472 9.6576 17.472C7.75418 17.4705 5.91701 16.773 4.49213 15.511C3.06726 14.2489 2.15301 12.5094 1.92164 10.6201C1.69027 8.73081 2.15774 6.82212 3.23597 5.25354C4.3142 3.68496 5.92877 2.56478 7.77558 2.104C8.39163 1.95352 9.02344 1.87695 9.6576 1.87598C11.0828 1.87897 12.48 2.27245 13.6974 3.01361C14.9148 3.75477 15.9058 4.81533 16.5629 6.08008C17.2199 7.34483 17.5179 8.76539 17.4244 10.1876C17.3309 11.6097 16.8496 12.9791 16.0326 14.147L15.9846 14.214C15.8638 14.3674 15.7936 14.5545 15.7834 14.7495C15.7732 14.9444 15.8236 15.1378 15.9276 15.303V15.304Z" fill="#3E3E3E"/>
<path d="M14.0595 9.62997C14.0593 9.83765 13.9975 10.0406 13.882 10.2132C13.7664 10.3857 13.6023 10.5202 13.4104 10.5995C13.2184 10.6787 13.0073 10.6993 12.8037 10.6586C12.6 10.6179 12.413 10.5177 12.2663 10.3708C12.1196 10.2238 12.0198 10.0366 11.9794 9.83286C11.9391 9.62914 11.9602 9.41801 12.0398 9.22623C12.1195 9.03444 12.2542 8.87061 12.427 8.7554C12.5997 8.64019 12.8028 8.57881 13.0105 8.57901C13.1484 8.57914 13.2849 8.60638 13.4122 8.65927C13.5396 8.71216 13.6552 8.78964 13.7526 8.88724C13.85 8.98483 13.9273 9.10068 13.9799 9.22812C14.0326 9.35556 14.0596 9.49209 14.0595 9.62997Z" fill="#3E3E3E"/>
<path d="M10.7345 9.62997C10.7341 9.83736 10.6723 10.04 10.5567 10.2122C10.4412 10.3845 10.2773 10.5186 10.0856 10.5977C9.89384 10.6768 9.68295 10.6973 9.4796 10.6566C9.27624 10.6159 9.08954 10.5158 8.94304 10.369C8.79653 10.2223 8.69679 10.0353 8.65648 9.83188C8.61616 9.62845 8.63708 9.41767 8.71654 9.2261C8.79599 9.03454 8.93043 8.87082 9.10289 8.75565C9.27535 8.64047 9.47808 8.57901 9.68547 8.57901C9.8234 8.57901 9.95999 8.60618 10.0874 8.65903C10.2148 8.71187 10.3305 8.78931 10.428 8.88693C10.5254 8.98455 10.6026 9.10043 10.6552 9.22794C10.7078 9.35544 10.7347 9.49205 10.7345 9.62997Z" fill="#3E3E3E"/>
<path d="M7.41148 9.62997C7.41109 9.83736 7.34919 10.04 7.23369 10.2122C7.11818 10.3845 6.95427 10.5186 6.76256 10.5977C6.57084 10.6768 6.35995 10.6973 6.1566 10.6566C5.95325 10.6159 5.76655 10.5158 5.62004 10.369C5.47354 10.2223 5.37379 10.0353 5.33348 9.83188C5.29317 9.62845 5.31408 9.41767 5.39354 9.2261C5.47299 9.03454 5.60743 8.87082 5.77989 8.75565C5.95236 8.64047 6.15508 8.57901 6.36247 8.57901C6.50036 8.57914 6.63686 8.60638 6.76421 8.65927C6.89155 8.71216 7.00725 8.78964 7.10466 8.88724C7.20207 8.98483 7.27931 9.10068 7.33195 9.22812C7.3846 9.35556 7.41161 9.49209 7.41148 9.62997Z" fill="#3E3E3E"/>
</svg>
