<svg width="17" height="19" viewBox="0 0 17 19" fill="none" xmlns="http://www.w3.org/2000/svg">
<path d="M16.4906 3.15424V4.00092C16.464 4.05651 16.4426 4.11442 16.4266 4.17398C16.294 4.95683 15.9004 5.67188 15.3098 6.203C14.7192 6.73412 13.9663 7.05015 13.1733 7.09969C12.2236 7.16229 11.2875 6.84791 10.5684 6.22482C9.55452 6.98305 8.55011 7.72995 7.55601 8.49006C7.51941 8.51979 7.49019 8.55765 7.47074 8.60059C7.4513 8.64353 7.44216 8.69038 7.44397 8.73747C7.64734 9.45554 7.64079 10.2168 7.42512 10.9313C8.3665 11.4017 9.28528 11.8494 10.1909 12.3254C10.2876 12.3919 10.4043 12.4232 10.5213 12.4141C10.6383 12.405 10.7485 12.3561 10.8338 12.2755C11.2635 11.9541 11.7609 11.735 12.2882 11.635C12.8155 11.5349 13.3586 11.5566 13.8762 11.6983C14.3938 11.8399 14.8723 12.0978 15.275 12.4524C15.6776 12.8069 15.994 13.2487 16.1998 13.7441C16.3136 14.0524 16.4117 14.3664 16.4935 14.6848V15.5314C16.3725 16.2511 16.0622 16.9258 15.5944 17.4863C14.998 18.1286 14.2019 18.5507 13.3352 18.6838H12.4879C12.4323 18.6569 12.3742 18.6352 12.3146 18.6189C11.62 18.5105 10.9758 18.1901 10.4703 17.7017C9.96472 17.2134 9.62252 16.5809 9.49049 15.8908C9.42818 15.2412 9.42198 14.5876 9.47176 13.9369C8.61227 13.5061 7.67181 13.0461 6.74172 12.5625C6.65337 12.505 6.54799 12.4793 6.44306 12.4898C6.33813 12.5002 6.2399 12.5461 6.16462 12.6199C5.72963 12.9488 5.22442 13.1727 4.68842 13.274C4.15242 13.3753 3.60017 13.3513 3.07502 13.2038C2.54987 13.0563 2.06604 12.7893 1.66133 12.4237C1.25663 12.0582 0.942035 11.6041 0.742245 11.0968C0.63022 10.8146 0.567146 10.5155 0.482422 10.2238V9.37716C0.506711 9.3194 0.526812 9.26002 0.542637 9.1994C0.638984 8.5966 0.890179 8.02909 1.27166 7.55231C1.65314 7.07554 2.15189 6.70578 2.71913 6.47924C3.28636 6.25269 3.90278 6.1771 4.50801 6.25979C5.11324 6.34248 5.68664 6.58065 6.1722 6.95104C6.20455 6.98358 6.24318 7.00908 6.28585 7.02597C6.32853 7.04285 6.37432 7.05075 6.42019 7.04916C6.46606 7.04757 6.51106 7.03652 6.55246 7.01672C6.59386 6.99692 6.6307 6.9688 6.66071 6.9341C7.53525 6.26618 8.41451 5.60393 9.30318 4.95859C9.39469 4.90787 9.4644 4.82534 9.49911 4.72668C9.53381 4.62802 9.53116 4.52007 9.49152 4.42328C9.27589 3.5908 9.3723 2.70824 9.76261 1.94186C10.1529 1.17549 10.8101 0.578208 11.6106 0.262456C11.893 0.149568 12.1914 0.0865472 12.4832 0H13.3305C14.1827 0.132416 14.9668 0.543296 15.5605 1.16839C16.0452 1.73372 16.3667 2.42018 16.4906 3.15424ZM5.81723 9.82215C5.82108 9.47143 5.72101 9.12739 5.52949 8.83347C5.33796 8.53956 5.06358 8.30893 4.74105 8.17059C4.41852 8.03225 4.06219 7.99242 3.71705 8.05615C3.37191 8.11989 3.05339 8.28432 2.80163 8.5287C2.54988 8.77309 2.37621 9.0865 2.30244 9.42941C2.22868 9.77232 2.25812 10.1293 2.38714 10.4555C2.51615 10.7817 2.73889 11.0625 3.02733 11.2623C3.31577 11.4621 3.65697 11.5722 4.0079 11.5785C4.24222 11.5824 4.47502 11.5399 4.6929 11.4537C4.91079 11.3674 5.10949 11.239 5.27759 11.0758C5.4457 10.9126 5.57995 10.7179 5.67255 10.5028C5.76516 10.2876 5.81429 10.0563 5.81723 9.82215ZM11.1587 15.1119C11.1561 15.4634 11.2579 15.8079 11.4513 16.1016C11.6446 16.3954 11.9208 16.6252 12.2449 16.762C12.569 16.8988 12.9264 16.9365 13.2719 16.8702C13.6174 16.804 13.9355 16.6368 14.1859 16.3899C14.4363 16.1429 14.6079 15.8273 14.6788 15.4829C14.7496 15.1385 14.7166 14.7809 14.584 14.4552C14.4514 14.1296 14.2251 13.8505 13.9338 13.6535C13.6424 13.4564 13.2991 13.3501 12.9472 13.348C12.4762 13.3455 12.0234 13.5298 11.6881 13.8604C11.3528 14.1911 11.1624 14.6411 11.1587 15.1119ZM11.1587 3.57006C11.1619 3.92134 11.2692 4.26382 11.467 4.55419C11.6649 4.84457 11.9444 5.06984 12.2703 5.20152C12.5962 5.3332 12.9539 5.36538 13.2981 5.29402C13.6423 5.22266 13.9576 5.05094 14.2042 4.80057C14.4508 4.5502 14.6177 4.23241 14.6836 3.88735C14.7495 3.54228 14.7116 3.18542 14.5747 2.86187C14.4377 2.53831 14.2079 2.26259 13.9143 2.0695C13.6206 1.87642 13.2763 1.77462 12.9247 1.77702C12.6904 1.77673 12.4583 1.82313 12.2421 1.9135C12.0259 2.00387 11.8299 2.13642 11.6656 2.30337C11.5013 2.47031 11.3719 2.66832 11.285 2.88581C11.1981 3.10331 11.1555 3.33591 11.1596 3.57006H11.1587Z" fill="#3E3E3E"/>
</svg>
