<svg width="22" height="18" viewBox="0 0 22 18" fill="none" xmlns="http://www.w3.org/2000/svg">
<path d="M21.4763 2.03298C20.6896 2.37912 19.8562 2.60761 19.0029 2.71108C19.9013 2.17145 20.574 1.32518 20.8967 0.328553C20.064 0.814158 19.1412 1.16764 18.1588 1.36451C17.5107 0.671915 16.6518 0.212552 15.7157 0.0577533C14.7795 -0.0970451 13.8183 0.0613836 12.9815 0.508438C12.1447 0.955492 11.479 1.66615 11.0877 2.53007C10.6965 3.39399 10.6017 4.36281 10.818 5.2861C7.23694 5.11723 4.063 3.3988 1.93886 0.801033C1.55256 1.45709 1.35106 2.20537 1.35574 2.96657C1.35574 4.46276 2.11748 5.77783 3.27148 6.55042C2.58754 6.52866 1.9187 6.34387 1.32071 6.01144V6.06481C1.32032 7.05911 1.66417 8.02293 2.29391 8.79274C2.92366 9.56255 3.80051 10.0909 4.77571 10.2883C4.14381 10.4575 3.48198 10.4829 2.83895 10.3626C3.11585 11.2183 3.65308 11.9662 4.37571 12.5022C5.09834 13.0381 5.97033 13.3354 6.87008 13.3524C5.34614 14.5475 3.46451 15.1961 1.52735 15.1942C1.18587 15.1942 0.845278 15.1741 0.50293 15.1356C2.47796 16.3993 4.77441 17.0701 7.11961 17.0684C15.047 17.0684 19.3767 10.5096 19.3767 4.83112C19.3767 4.64825 19.3767 4.46363 19.3636 4.27989C20.2094 3.67165 20.9389 2.91653 21.5175 2.05048L21.4763 2.03298Z" fill="#3E3E3E"/>
</svg>
