<svg width="17" height="20" viewBox="0 0 17 20" fill="none" xmlns="http://www.w3.org/2000/svg">
<path d="M15.9996 3.65424V4.50092C15.9729 4.55651 15.9515 4.61442 15.9356 4.67398C15.8031 5.45683 15.4097 6.17188 14.8195 6.703C14.2293 7.23412 13.477 7.55015 12.6845 7.59969C11.7355 7.66229 10.8 7.34791 10.0814 6.72482C9.06825 7.48305 8.06454 8.22995 7.07113 8.99006C7.03456 9.01979 7.00535 9.05765 6.98592 9.10059C6.96649 9.14353 6.95736 9.19038 6.95916 9.23747C7.16239 9.95554 7.15585 10.7168 6.94033 11.4313C7.88106 11.9017 8.7992 12.3494 9.70419 12.8254C9.80083 12.8919 9.91741 12.9232 10.0343 12.9141C10.1513 12.905 10.2614 12.8561 10.3467 12.7755C10.776 12.4541 11.2731 12.235 11.8 12.135C12.3269 12.0349 12.8697 12.0566 13.387 12.1983C13.9042 12.3399 14.3823 12.5978 14.7847 12.9524C15.1871 13.3069 15.5033 13.7487 15.7089 14.2441C15.8227 14.5524 15.9207 14.8664 16.0024 15.1848V16.0314C15.8815 16.7511 15.5714 17.4258 15.104 17.9863C14.508 18.6286 13.7124 19.0507 12.8463 19.1838H11.9996C11.944 19.1569 11.886 19.1352 11.8265 19.1189C11.1323 19.0105 10.4885 18.6901 9.98335 18.2017C9.47817 17.7134 9.13621 17.0809 9.00426 16.3908C8.942 15.7412 8.9358 15.0876 8.98555 14.4369C8.12666 14.0061 7.18685 13.5461 6.2574 13.0625C6.16911 13.005 6.0638 12.9793 5.95895 12.9898C5.85409 13.0002 5.75593 13.0461 5.6807 13.1199C5.24602 13.4488 4.74116 13.6727 4.20553 13.774C3.6699 13.8753 3.11803 13.8513 2.59324 13.7038C2.06845 13.5563 1.58496 13.2893 1.18054 12.9237C0.776115 12.5582 0.461736 12.1041 0.262084 11.5968C0.150137 11.3146 0.0871072 11.0155 0.00244141 10.7238V9.87716C0.0267137 9.8194 0.0468007 9.76002 0.0626151 9.6994C0.158895 9.0966 0.409916 8.52909 0.79113 8.05231C1.17234 7.57554 1.67075 7.20578 2.2376 6.97924C2.80444 6.75269 3.42042 6.6771 4.02524 6.75979C4.63005 6.84248 5.20305 7.08065 5.68828 7.45104C5.7206 7.48358 5.75921 7.50908 5.80185 7.52597C5.8445 7.54285 5.89026 7.55075 5.9361 7.54916C5.98193 7.54757 6.0269 7.53652 6.06827 7.51672C6.10964 7.49692 6.14646 7.4688 6.17645 7.4341C7.05038 6.76618 7.92903 6.10393 8.81708 5.45859C8.90854 5.40787 8.9782 5.32534 9.01288 5.22668C9.04755 5.12802 9.04491 5.02007 9.0053 4.92328C8.78982 4.0908 8.88616 3.20824 9.27619 2.44186C9.66623 1.67549 10.323 1.07821 11.1229 0.762456C11.4051 0.649568 11.7033 0.586547 11.9949 0.5H12.8416C13.6932 0.632416 14.4768 1.0433 15.0701 1.66839C15.5544 2.23372 15.8758 2.92018 15.9996 3.65424ZM5.33355 10.3221C5.3374 9.97143 5.2374 9.62739 5.04601 9.33347C4.85461 9.03956 4.58043 8.80893 4.25812 8.67059C3.93582 8.53225 3.57973 8.49242 3.23482 8.55615C2.88992 8.61989 2.57163 8.78432 2.32005 9.0287C2.06846 9.27309 1.89492 9.5865 1.8212 9.92941C1.74749 10.2723 1.77691 10.6293 1.90584 10.9555C2.03476 11.2817 2.25734 11.5625 2.54558 11.7623C2.83382 11.9621 3.17479 12.0722 3.52547 12.0785C3.75964 12.0824 3.99227 12.0399 4.21001 11.9537C4.42774 11.8674 4.6263 11.739 4.79429 11.5758C4.96228 11.4126 5.09643 11.2179 5.18898 11.0028C5.28152 10.7876 5.33061 10.5563 5.33355 10.3221ZM10.6713 15.6119C10.6687 15.9634 10.7705 16.3079 10.9637 16.6016C11.1569 16.8954 11.4329 17.1252 11.7568 17.262C12.0806 17.3988 12.4377 17.4365 12.783 17.3702C13.1283 17.304 13.4462 17.1368 13.6964 16.8899C13.9467 16.6429 14.1182 16.3273 14.189 15.9829C14.2598 15.6385 14.2267 15.2809 14.0942 14.9552C13.9617 14.6296 13.7356 14.3505 13.4445 14.1535C13.1533 13.9564 12.8102 13.8501 12.4586 13.848C11.9879 13.8455 11.5354 14.0298 11.2004 14.3604C10.8653 14.6911 10.6751 15.1411 10.6713 15.6119ZM10.6713 4.07006C10.6745 4.42134 10.7817 4.76382 10.9794 5.05419C11.1772 5.34457 11.4564 5.56984 11.7821 5.70152C12.1078 5.8332 12.4652 5.86538 12.8092 5.79402C13.1532 5.72266 13.4683 5.55094 13.7147 5.30057C13.9611 5.0502 14.1279 4.73241 14.1938 4.38735C14.2597 4.04228 14.2218 3.68542 14.0849 3.36187C13.9481 3.03831 13.7184 2.76259 13.425 2.5695C13.1315 2.37642 12.7874 2.27462 12.4361 2.27702C12.2019 2.27673 11.97 2.32313 11.754 2.4135C11.538 2.50387 11.3421 2.63642 11.1779 2.80337C11.0136 2.97031 10.8843 3.16832 10.7975 3.38581C10.7107 3.60331 10.6681 3.83591 10.6722 4.07006H10.6713Z" fill="#3E3E3E"/>
</svg>
