<svg width="31" height="33" viewBox="0 0 31 33" fill="none" xmlns="http://www.w3.org/2000/svg">
<path d="M22.3119 25.1322H17.9525C17.5628 25.1318 17.1892 24.9692 16.9135 24.6802C16.6379 24.3912 16.4826 23.9993 16.482 23.5904V18.4735H14.2617V23.5904C14.261 23.9993 14.1058 24.3912 13.8301 24.6802C13.5544 24.9692 13.1808 25.1318 12.7911 25.1322H8.43175C8.04202 25.1318 7.6684 24.9692 7.39274 24.6802C7.11708 24.3912 6.96188 23.9993 6.96118 23.5904V15.432C6.96137 15.2154 7.00508 15.0014 7.08939 14.8036C7.1737 14.6059 7.29665 14.429 7.45045 14.2844L14.3892 7.73303C14.6584 7.47769 15.0084 7.33624 15.3714 7.33624C15.7343 7.33624 16.0843 7.47769 16.3535 7.73303L23.2957 14.2862C23.4486 14.4309 23.5709 14.6077 23.6545 14.8051C23.7382 15.0025 23.7815 15.216 23.7816 15.432V23.5904C23.7811 23.9992 23.6261 24.3911 23.3505 24.6802C23.075 24.9692 22.7015 25.1318 22.3119 25.1322ZM18.4926 23.024H21.7718V15.6815L15.3714 9.64055L8.97179 15.6824V23.024H12.251V17.9071C12.2517 17.4984 12.4068 17.1067 12.6823 16.8177C12.9578 16.5287 13.3312 16.366 13.7208 16.3653H17.0228C17.4124 16.366 17.7858 16.5287 18.0613 16.8177C18.3368 17.1067 18.4919 17.4984 18.4926 17.9071V23.024Z" fill="#3E3E3E"/>
</svg>
