<svg width="30" height="34" viewBox="0 0 30 34" fill="none" xmlns="http://www.w3.org/2000/svg">
<path d="M14.5464 25.5329L14.5097 25.5242L14.4726 25.518C14.1074 25.4564 13.7481 25.2994 13.4236 25.0464C13.0984 24.7929 12.816 24.4485 12.6077 24.0312L12.29 23.3949H11.5788H8.19151C8.06454 23.3928 7.92177 23.3449 7.78637 23.227C7.64674 23.1054 7.52425 22.9151 7.46413 22.6705L7.46236 22.6633L7.4605 22.6561C7.40051 22.4249 7.39868 22.1766 7.45551 21.9439C7.51011 21.7203 7.613 21.534 7.73801 21.3977L7.76946 21.368C8.24489 20.9518 8.62028 20.4282 8.87708 19.8439C9.1377 19.2509 9.27235 18.6044 9.27565 17.9528H9.27566V17.947V14.6849V14.6848C9.27546 12.9076 9.89688 11.2283 10.9661 10.0108C12.0309 8.79824 13.4409 8.15078 14.8746 8.15C16.308 8.15053 17.7179 8.79761 18.7829 10.0097C19.8521 11.2265 20.4738 12.9052 20.4743 14.682C20.4743 14.6821 20.4743 14.6822 20.4743 14.6823V17.9509H20.4742L20.4743 17.9575C20.478 18.6085 20.6129 19.2545 20.8736 19.8468C21.1304 20.4304 21.5055 20.9531 21.9803 21.3687C22.1191 21.4986 22.2378 21.6909 22.2993 21.9313C22.361 22.1724 22.3569 22.4314 22.2885 22.6685C22.2201 22.9055 22.0965 23.091 21.956 23.2134C21.8262 23.3263 21.6887 23.381 21.5618 23.3939H18.1914H17.4851L17.1657 24.0239C16.9149 24.5187 16.5637 24.9112 16.1617 25.1762C15.7619 25.4398 15.322 25.5714 14.8847 25.573C14.7719 25.5728 14.6586 25.5595 14.5464 25.5329Z" stroke="#3E3E3E" stroke-width="2.3"/>
</svg>
