<svg width="31" height="33" viewBox="0 0 31 33" fill="none" xmlns="http://www.w3.org/2000/svg">
<path d="M23.0385 23.5951C22.874 22.2031 22.3732 20.8782 21.5837 19.7463C20.7942 18.6143 19.7421 17.7127 18.5272 17.1271C19.2518 16.4326 19.7594 15.5245 19.9833 14.522C20.2073 13.5195 20.1371 12.4694 19.7821 11.5095C19.427 10.5495 18.8037 9.72462 17.9938 9.14294C17.184 8.56127 16.2253 8.25 15.2438 8.25C14.2623 8.25 13.3038 8.56127 12.494 9.14294C11.6841 9.72462 11.0607 10.5495 10.7056 11.5095C10.3506 12.4694 10.2805 13.5195 10.5045 14.522C10.7284 15.5245 11.236 16.4326 11.9606 17.1271C10.7457 17.7127 9.69353 18.6143 8.90399 19.7463C8.11445 20.8782 7.61367 22.2031 7.4492 23.5951C7.41967 23.8541 7.4429 24.1167 7.51726 24.3656C7.59161 24.6146 7.7155 24.8441 7.88066 25.0391C8.04582 25.2342 8.24853 25.3902 8.47541 25.4969C8.7023 25.6037 8.94811 25.6588 9.19678 25.6585H21.297C21.5457 25.6588 21.7916 25.6037 22.0185 25.4969C22.2453 25.3902 22.4481 25.2342 22.6132 25.0391C22.7784 24.8441 22.9023 24.6146 22.9766 24.3656C23.051 24.1167 23.0741 23.8541 23.0446 23.5951H23.0385ZM12.387 13.3678C12.387 12.7749 12.5547 12.1953 12.8687 11.7024C13.1827 11.2094 13.6289 10.8252 14.1511 10.5984C14.6732 10.3716 15.2477 10.3122 15.802 10.428C16.3563 10.5437 16.8654 10.8292 17.265 11.2485C17.6646 11.6678 17.9366 12.202 18.0467 12.7835C18.1569 13.3651 18.1003 13.9678 17.8839 14.5155C17.6675 15.0632 17.3011 15.5314 16.8311 15.8606C16.3611 16.1899 15.8086 16.3655 15.2434 16.3653C14.4863 16.3643 13.7604 16.0484 13.2249 15.4869C12.6895 14.9253 12.3881 14.1639 12.387 13.3697V13.3678ZM9.48605 23.5492C9.72301 22.1278 10.4302 20.8395 11.4833 19.9112C12.5364 18.9829 13.8679 18.4739 15.2434 18.4739C16.6189 18.4739 17.9504 18.9829 19.0035 19.9112C20.0566 20.8395 20.7638 22.1278 21.0008 23.5492H9.48605Z" fill="#3E3E3E"/>
</svg>
