<svg width="20" height="19" viewBox="0 0 20 19" fill="none" xmlns="http://www.w3.org/2000/svg">
<path d="M14.5003 0.000260418C13.6444 0.00678798 12.7999 0.196723 12.0236 0.557252C11.2473 0.917781 10.5574 1.44052 10.0003 2.09026C9.44312 1.44052 8.75317 0.917781 7.97691 0.557252C7.20066 0.196723 6.35613 0.00678798 5.50026 0.000260418C4.77602 -0.00682149 4.05764 0.130603 3.38715 0.404496C2.71667 0.678389 2.10753 1.08324 1.59539 1.59538C1.08325 2.10752 0.678389 2.71666 0.404496 3.38715C0.130603 4.05764 -0.00682149 4.77602 0.000260418 5.50026C0.000260418 9.28026 3.40026 12.3603 8.55026 17.0403L10.0003 18.3503L11.4503 17.0303C16.6003 12.3603 20.0003 9.28026 20.0003 5.50026C20.0073 4.77602 19.8699 4.05764 19.596 3.38715C19.3221 2.71666 18.9173 2.10752 18.4051 1.59538C17.893 1.08324 17.2839 0.678389 16.6134 0.404496C15.9429 0.130603 15.2245 -0.00682149 14.5003 0.000260418ZM10.1003 15.5503L10.0003 15.6503L9.90025 15.5503C5.14025 11.2403 2.00026 8.39026 2.00026 5.50026C1.98902 5.03756 2.07187 4.5774 2.24378 4.14768C2.4157 3.71795 2.67309 3.32764 3.00036 3.00037C3.32763 2.67309 3.71796 2.41569 4.14768 2.24378C4.5774 2.07186 5.03756 1.98902 5.50026 2.00026C6.26033 2.00396 7.00285 2.22916 7.63691 2.64832C8.27097 3.06747 8.76908 3.6624 9.07027 4.36026H10.9403C11.2382 3.66212 11.7342 3.06655 12.3668 2.64714C12.9995 2.22773 13.7412 2.00284 14.5003 2.00026C14.963 1.98902 15.4231 2.07186 15.8528 2.24378C16.2826 2.41569 16.6729 2.67309 17.0002 3.00037C17.3274 3.32764 17.5848 3.71795 17.7567 4.14768C17.9287 4.5774 18.0115 5.03756 18.0003 5.50026C18.0003 8.39026 14.8603 11.2363 10.1003 15.5503Z" fill="#3E3E3E"/>
</svg>
