<svg width="31" height="33" viewBox="0 0 31 33" fill="none" xmlns="http://www.w3.org/2000/svg">
<path d="M23.2345 23.166L20.3913 20.1832C21.396 18.799 21.9344 17.1041 21.9221 15.3643C21.9283 14.3162 21.7377 13.277 21.3611 12.3061C20.9845 11.3353 20.4293 10.4518 19.7272 9.70609C19.0251 8.96034 18.1898 8.36691 17.2691 7.95981C16.3484 7.55271 15.3604 7.33989 14.3613 7.33341H14.2669C13.2678 7.32689 12.2772 7.5269 11.3518 7.92199C10.4263 8.31708 9.58409 8.89949 8.87323 9.63604C8.16237 10.3726 7.59681 11.2489 7.20875 12.2147C6.82069 13.1806 6.61783 14.2171 6.61165 15.2653C6.60741 16.2693 6.77944 17.2656 7.11926 18.2042C7.54236 19.3944 8.22956 20.4619 9.12389 21.3184C10.0182 22.1748 11.094 22.7957 12.2624 23.1295C12.9165 23.3097 13.5905 23.399 14.2669 23.3952C15.9254 23.4086 17.5411 22.8438 18.8603 21.7893L21.7037 24.7721C21.8041 24.8777 21.9235 24.9614 22.0548 25.0185C22.1861 25.0756 22.3269 25.105 22.4691 25.105C22.6113 25.105 22.752 25.0756 22.8834 25.0185C23.0147 24.9614 23.134 24.8777 23.2345 24.7721C23.4375 24.5591 23.5515 24.2702 23.5515 23.969C23.5515 23.6679 23.4375 23.379 23.2345 23.166ZM8.79611 15.3643C8.78191 13.8571 9.33896 12.4058 10.3448 11.3295C11.3506 10.2532 12.7227 9.64007 14.1594 9.62507H14.2669C14.9783 9.61806 15.6841 9.75815 16.3439 10.0373C17.0038 10.3165 17.6047 10.7293 18.1125 11.2521C18.6203 11.7749 19.0249 12.3974 19.3033 13.0843C19.5817 13.7712 19.7284 14.5089 19.735 15.2552V15.3616C19.7417 16.108 19.6082 16.8484 19.3421 17.5406C19.076 18.2328 18.6826 18.8633 18.1842 19.396C17.6858 19.9287 17.0923 20.3532 16.4376 20.6452C15.7828 20.9373 15.0797 21.0911 14.3682 21.0981H14.2669C12.8302 21.113 11.4467 20.5286 10.4207 19.4734C9.39475 18.4183 8.81041 16.9788 8.79611 15.4716C8.79524 15.4359 8.79524 15.4001 8.79611 15.3643Z" fill="#3E3E3E"/>
</svg>
