<svg width="21" height="20" viewBox="0 0 21 20" fill="none" xmlns="http://www.w3.org/2000/svg">
<path d="M19.3163 9.67499C19.315 7.11282 18.2976 4.65573 16.4873 2.84259C14.677 1.02946 12.2215 0.00828577 9.65931 0.00299072C8.87558 0.00414612 8.09478 0.0984806 7.33332 0.283997C5.04341 0.856459 3.04157 2.24596 1.70447 4.1911C0.367376 6.13624 -0.212853 8.50293 0.0729439 10.8459C0.358741 13.189 1.49089 15.3468 3.25635 16.9135C5.02182 18.4802 7.29893 19.3477 9.65931 19.353C10.2043 19.353 16.2823 19.036 17.7593 18.953C18.0362 18.9608 18.3096 18.8902 18.5481 18.7493C18.7866 18.6084 18.9804 18.4029 19.1071 18.1566C19.2338 17.9102 19.2882 17.6331 19.2642 17.3572C19.2402 17.0812 19.1387 16.8177 18.9713 16.597L17.8403 14.817L17.9403 14.655C18.8439 13.1512 19.3197 11.4293 19.3163 9.67499ZM15.9293 15.304L17.0773 17.111L16.5533 17.138C15.4803 17.194 10.1013 17.472 9.65931 17.472C7.75589 17.4705 5.91872 16.773 4.49384 15.511C3.06896 14.2489 2.15472 12.5094 1.92335 10.6201C1.69198 8.73081 2.15944 6.82212 3.23768 5.25354C4.31591 3.68496 5.93048 2.56478 7.77729 2.104C8.39334 1.95352 9.02515 1.87695 9.65931 1.87598C11.0845 1.87897 12.4817 2.27245 13.6991 3.01361C14.9165 3.75477 15.9075 4.81533 16.5646 6.08008C17.2216 7.34483 17.5196 8.76539 17.4261 10.1876C17.3326 11.6097 16.8513 12.9791 16.0343 14.147L15.9863 14.214C15.8656 14.3674 15.7953 14.5545 15.7851 14.7495C15.7749 14.9444 15.8253 15.1378 15.9293 15.303V15.304Z" fill="#3E3E3E"/>
<path d="M14.0614 9.62994C14.0612 9.83761 13.9995 10.0406 13.8839 10.2131C13.7684 10.3857 13.6042 10.5201 13.4123 10.5994C13.2204 10.6787 13.0093 10.6993 12.8056 10.6586C12.602 10.6179 12.415 10.5177 12.2683 10.3707C12.1216 10.2237 12.0217 10.0365 11.9814 9.83283C11.9411 9.62911 11.9621 9.41798 12.0418 9.2262C12.1214 9.03441 12.2561 8.87058 12.4289 8.75537C12.6017 8.64016 12.8048 8.57878 13.0125 8.57898C13.1504 8.57911 13.2869 8.60635 13.4142 8.65924C13.5415 8.71213 13.6572 8.78961 13.7546 8.88721C13.852 8.9848 13.9292 9.10065 13.9819 9.22809C14.0345 9.35553 14.0615 9.49206 14.0614 9.62994Z" fill="#3E3E3E"/>
<path d="M10.7362 9.62994C10.7358 9.83733 10.674 10.04 10.5585 10.2122C10.443 10.3845 10.279 10.5186 10.0873 10.5977C9.89555 10.6767 9.68466 10.6973 9.48131 10.6566C9.27795 10.6159 9.09125 10.5158 8.94475 10.369C8.79824 10.2222 8.6985 10.0353 8.65819 9.83185C8.61787 9.62842 8.63879 9.41764 8.71825 9.22607C8.7977 9.03451 8.93213 8.87079 9.1046 8.75562C9.27706 8.64044 9.47979 8.57898 9.68718 8.57898C9.8251 8.57898 9.96169 8.60615 10.0891 8.659C10.2165 8.71184 10.3322 8.78928 10.4297 8.8869C10.5271 8.98452 10.6043 9.1004 10.6569 9.22791C10.7095 9.35541 10.7365 9.49202 10.7362 9.62994Z" fill="#3E3E3E"/>
<path d="M7.41344 9.62994C7.41304 9.83733 7.35115 10.04 7.23564 10.2122C7.12014 10.3845 6.95622 10.5186 6.76451 10.5977C6.5728 10.6767 6.36191 10.6973 6.15855 10.6566C5.9552 10.6159 5.7685 10.5158 5.62199 10.369C5.47549 10.2222 5.37575 10.0353 5.33543 9.83185C5.29512 9.62842 5.31604 9.41764 5.39549 9.22607C5.47495 9.03451 5.60938 8.87079 5.78184 8.75562C5.95431 8.64044 6.15704 8.57898 6.36443 8.57898C6.50231 8.57911 6.63882 8.60635 6.76616 8.65924C6.8935 8.71213 7.0092 8.78961 7.10661 8.88721C7.20402 8.9848 7.28126 9.10065 7.33391 9.22809C7.38655 9.35553 7.41357 9.49206 7.41344 9.62994Z" fill="#3E3E3E"/>
</svg>
