<svg width="22" height="17" viewBox="0 0 22 17" fill="none" xmlns="http://www.w3.org/2000/svg">
<path d="M18.6255 0H2.47934C1.94551 0.00185352 1.43423 0.215272 1.0577 0.593418C0.681169 0.971564 0.470146 1.48355 0.470944 2.017L0.460938 14.118C0.462521 14.6525 0.675682 15.1646 1.05386 15.5425C1.43204 15.9204 1.94451 16.1334 2.47934 16.135H18.6255C19.1604 16.1334 19.6728 15.9204 20.051 15.5425C20.4292 15.1646 20.6423 14.6525 20.6439 14.118V2.017C20.6423 1.48255 20.4292 0.970432 20.051 0.592514C19.6728 0.214596 19.1604 0.0015828 18.6255 0ZM18.6255 14.118H2.47934V4.034L10.5519 9.076L18.6245 4.034L18.6255 14.118ZM10.5529 7.059L2.47934 2.017H18.6255L10.5529 7.059Z" fill="#3E3E3E"/>
</svg>
