<svg width="20" height="20" viewBox="0 0 20 20" fill="none" xmlns="http://www.w3.org/2000/svg">
<path d="M14.5003 0.50026C13.6444 0.506788 12.7999 0.696723 12.0236 1.05725C11.2473 1.41778 10.5574 1.94052 10.0003 2.59026C9.44312 1.94052 8.75317 1.41778 7.97691 1.05725C7.20066 0.696723 6.35613 0.506788 5.50026 0.50026C4.77602 0.493179 4.05764 0.630603 3.38715 0.904496C2.71667 1.17839 2.10753 1.58324 1.59539 2.09538C1.08325 2.60752 0.678389 3.21666 0.404496 3.88715C0.130603 4.55764 -0.00682149 5.27602 0.000260418 6.00026C0.000260418 9.78026 3.40026 12.8603 8.55026 17.5403L10.0003 18.8503L11.4503 17.5303C16.6003 12.8603 20.0003 9.78026 20.0003 6.00026C20.0073 5.27602 19.8699 4.55764 19.596 3.88715C19.3221 3.21666 18.9173 2.60752 18.4051 2.09538C17.893 1.58324 17.2839 1.17839 16.6134 0.904496C15.9429 0.630603 15.2245 0.493179 14.5003 0.50026ZM10.1003 16.0503L10.0003 16.1503L9.90025 16.0503C5.14025 11.7403 2.00026 8.89026 2.00026 6.00026C1.98902 5.53756 2.07187 5.0774 2.24378 4.64768C2.4157 4.21795 2.67309 3.82764 3.00036 3.50037C3.32763 3.17309 3.71796 2.91569 4.14768 2.74378C4.5774 2.57186 5.03756 2.48902 5.50026 2.50026C6.26033 2.50396 7.00285 2.72916 7.63691 3.14832C8.27097 3.56747 8.76908 4.1624 9.07027 4.86026H10.9403C11.2382 4.16212 11.7342 3.56655 12.3668 3.14714C12.9995 2.72773 13.7412 2.50284 14.5003 2.50026C14.963 2.48902 15.4231 2.57186 15.8528 2.74378C16.2826 2.91569 16.6729 3.17309 17.0002 3.50037C17.3274 3.82764 17.5848 4.21795 17.7567 4.64768C17.9287 5.0774 18.0115 5.53756 18.0003 6.00026C18.0003 8.89026 14.8603 11.7363 10.1003 16.0503Z" fill="#3E3E3E"/>
</svg>
