<svg width="18" height="17" viewBox="0 0 18 17" fill="none" xmlns="http://www.w3.org/2000/svg">
<path d="M9.03031 0C6.71954 0 6.43105 0.010625 5.52375 0.051C4.61788 0.0935 4.0012 0.235875 3.45895 0.44625C2.89969 0.663 2.42477 0.954125 1.95199 1.42658C1.4792 1.89904 1.18717 2.37292 0.970974 2.9325C0.760453 3.47437 0.61727 4.09062 0.575449 4.99587C0.53292 5.90254 0.524414 6.19083 0.524414 8.5C0.524414 10.8092 0.535046 11.0975 0.575449 12.0041C0.617979 12.9087 0.760453 13.5256 0.970974 14.0675C1.18454 14.6348 1.51932 15.1487 1.95199 15.5734C2.37677 16.0061 2.89111 16.3407 3.45895 16.5538C4.00191 16.7634 4.61858 16.9072 5.52375 16.949C6.43105 16.9915 6.71954 17 9.03031 17C11.3411 17 11.6296 16.9894 12.5369 16.949C13.442 16.9065 14.0594 16.7634 14.6017 16.5538C15.1692 16.3401 15.6834 16.0056 16.1086 15.5734C16.5417 15.149 16.8766 14.635 17.0896 14.0675C17.2995 13.5256 17.4433 12.9087 17.4852 12.0041C17.5277 11.0975 17.5362 10.8092 17.5362 8.5C17.5362 6.19083 17.5256 5.90254 17.4852 4.99587C17.4426 4.09133 17.2995 3.47367 17.0896 2.9325C16.876 2.36528 16.5412 1.85139 16.1086 1.42658C15.6842 0.993537 15.1697 0.658884 14.6017 0.44625C14.0594 0.235875 13.442 0.0927917 12.5369 0.051C11.6296 0.0085 11.3411 0 9.03031 0ZM9.03031 1.53C11.3007 1.53 11.5714 1.54133 12.4681 1.58029C13.2974 1.61925 13.7475 1.75667 14.0467 1.87425C14.445 2.02796 14.7271 2.21213 15.0263 2.50892C15.3233 2.80642 15.5075 3.08904 15.6614 3.48712C15.7776 3.78604 15.9165 4.23583 15.9541 5.06458C15.9945 5.96133 16.0037 6.2305 16.0037 8.5C16.0037 10.7695 15.9931 11.0394 15.9513 11.9354C15.908 12.7642 15.7698 13.214 15.6529 13.5129C15.5145 13.8817 15.297 14.2159 15.0156 14.4918C14.7407 14.7732 14.4066 14.99 14.0374 15.1265C13.7397 15.2426 13.2825 15.3815 12.4532 15.419C11.5502 15.4594 11.2844 15.4686 9.00904 15.4686C6.73301 15.4686 6.4672 15.458 5.56487 15.4162C4.73483 15.373 4.27764 15.2348 3.97993 15.118C3.61057 14.9814 3.27655 14.7638 3.00246 14.4812C2.71793 14.2083 2.49971 13.8739 2.36452 13.5037C2.24757 13.2062 2.11005 12.7493 2.06682 11.9205C2.03492 11.028 2.02358 10.7525 2.02358 8.48937C2.02358 6.22554 2.03492 5.94929 2.06682 5.04617C2.11005 4.21742 2.24757 3.76125 2.36452 3.46375C2.51338 3.06 2.70405 2.78375 3.00246 2.48554C3.29946 2.18875 3.57661 1.9975 3.97993 1.84946C4.27764 1.73187 4.72491 1.59375 5.55423 1.55125C6.45798 1.51937 6.72379 1.50875 8.99841 1.50875L9.03031 1.53ZM9.03031 4.13525C8.45672 4.13525 7.88876 4.24815 7.35883 4.4675C6.82891 4.68685 6.34741 5.00835 5.94182 5.41366C5.53624 5.81896 5.21451 6.30013 4.99501 6.82968C4.77551 7.35924 4.66253 7.92681 4.66253 8.5C4.66253 9.07319 4.77551 9.64076 4.99501 10.1703C5.21451 10.6999 5.53624 11.181 5.94182 11.5863C6.34741 11.9916 6.82891 12.3132 7.35883 12.5325C7.88876 12.7519 8.45672 12.8647 9.03031 12.8647C10.1887 12.8647 11.2997 12.4049 12.1188 11.5863C12.9379 10.7678 13.3981 9.6576 13.3981 8.5C13.3981 7.3424 12.9379 6.2322 12.1188 5.41366C11.2997 4.59511 10.1887 4.13525 9.03031 4.13525ZM9.03031 11.3333C7.46381 11.3333 6.19501 10.0654 6.19501 8.5C6.19501 6.93458 7.46381 5.66667 9.03031 5.66667C10.5968 5.66667 11.8656 6.93458 11.8656 8.5C11.8656 10.0654 10.5968 11.3333 9.03031 11.3333ZM14.5917 3.96312C14.5819 4.22707 14.4701 4.47692 14.2797 4.66017C14.0894 4.84343 13.8353 4.94581 13.571 4.94581C13.3067 4.94581 13.0527 4.84343 12.8624 4.66017C12.672 4.47692 12.5602 4.22707 12.5503 3.96312C12.5503 3.6926 12.6579 3.43316 12.8493 3.24188C13.0407 3.05059 13.3003 2.94313 13.571 2.94313C13.8417 2.94313 14.1014 3.05059 14.2928 3.24188C14.4842 3.43316 14.5917 3.6926 14.5917 3.96312Z" fill="#3E3E3E"/>
</svg>
